<?xml version="1.0" standalone="no"?>
<!DOCTYPE svg PUBLIC "-//W3C//DTD SVG 20010904//EN"
 "http://www.w3.org/TR/2001/REC-SVG-20010904/DTD/svg10.dtd">
<svg version="1.0" xmlns="http://www.w3.org/2000/svg"
 width="500.000000pt" height="500.000000pt" viewBox="0 0 500.000000 500.000000"
 preserveAspectRatio="xMidYMid meet">
<metadata>
Created by potrace 1.11, written by Peter Selinger 2001-2013
</metadata>
<g transform="translate(0.000000,500.000000) scale(0.100000,-0.100000)"
fill="#000000" stroke="none">
<path d="M2358 4995 c-2 -2 -28 -6 -58 -9 -157 -15 -307 -45 -481 -96 -112
-33 -240 -85 -379 -153 -69 -34 -129 -65 -135 -70 -5 -4 -46 -30 -90 -58 -100
-62 -115 -71 -134 -86 -31 -23 -185 -147 -201 -162 -9 -9 -36 -34 -61 -57 -38
-35 -85 -85 -185 -195 -47 -53 -151 -197 -206 -285 -48 -78 -120 -209 -123
-224 0 -3 -10 -23 -22 -45 -23 -45 -109 -269 -117 -306 -3 -13 -17 -67 -31
-119 -14 -52 -27 -109 -30 -125 -2 -17 -6 -42 -9 -55 -7 -26 -10 -52 -23 -165
-16 -137 -8 -559 12 -660 2 -11 7 -40 10 -65 3 -25 8 -56 11 -70 3 -14 7 -34
8 -45 42 -256 182 -605 335 -835 145 -219 345 -427 560 -585 79 -58 147 -102
184 -121 18 -9 34 -20 37 -24 8 -12 335 -170 352 -170 7 0 18 -4 24 -9 8 -8
153 -58 269 -94 62 -19 208 -55 255 -62 19 -3 42 -8 50 -10 8 -2 38 -6 65 -10
28 -3 57 -8 67 -11 9 -3 19 0 23 6 3 5 -1 10 -9 10 -24 0 -30 1 -46 10 -8 4
-31 10 -50 14 -99 15 -481 144 -577 194 -10 6 -61 31 -113 57 -617 308 -1029
780 -1209 1385 -17 58 -34 116 -37 130 -22 106 -36 181 -40 215 -2 21 -7 51
-9 65 -25 128 -25 529 0 717 21 159 109 499 136 528 5 5 9 14 9 21 0 6 12 38
27 70 15 33 27 61 28 64 2 7 81 159 108 205 23 40 92 147 114 175 145 189 282
337 410 440 123 99 208 159 325 227 77 45 271 143 284 143 3 0 20 7 37 15 29
13 169 61 207 71 8 2 40 10 70 18 30 8 66 17 80 20 14 3 36 8 50 11 14 3 57
10 95 16 39 5 84 12 100 15 17 3 111 7 210 9 177 3 335 -11 460 -40 271 -62
504 -158 731 -301 80 -50 208 -144 279 -203 120 -102 352 -355 412 -449 10
-15 20 -29 23 -32 14 -14 50 -71 50 -80 0 -5 5 -10 10 -10 6 0 10 -4 10 -9 0
-5 17 -38 38 -72 94 -155 212 -447 248 -613 18 -84 36 -177 40 -211 3 -22 9
-65 14 -95 8 -55 6 -497 -3 -535 -3 -11 -8 -47 -11 -80 -4 -33 -11 -82 -16
-110 -9 -48 -13 -70 -25 -133 -9 -47 -86 -306 -95 -317 -4 -5 -13 -28 -20 -50
-35 -110 -247 -479 -319 -554 -9 -10 -40 -45 -69 -79 -72 -83 -201 -212 -213
-212 -5 0 -9 -3 -9 -8 0 -20 -361 -282 -388 -282 -6 0 -12 -4 -14 -9 -4 -13
-297 -160 -403 -202 -150 -61 -385 -136 -452 -145 -41 -5 -87 -23 -80 -30 3
-3 48 4 99 15 51 12 95 21 98 21 3 -1 22 6 43 15 20 8 37 13 37 11 0 -7 246
77 343 118 81 33 301 142 372 184 111 64 262 171 370 261 65 54 274 270 327
337 66 83 178 249 178 263 0 5 3 11 8 13 10 4 124 237 155 318 49 126 105 322
123 430 3 14 9 48 14 75 10 58 18 112 28 210 9 88 9 473 -1 540 -3 28 -9 70
-12 95 -3 25 -8 53 -11 62 -3 10 -7 30 -10 45 -2 16 -7 39 -10 53 -3 14 -8 34
-10 45 -11 59 -75 252 -119 355 -63 152 -214 423 -267 480 -10 11 -18 22 -18
25 0 8 -108 141 -160 199 -256 283 -563 505 -890 644 -71 30 -212 84 -217 82
-4 0 -12 2 -73 19 -25 7 -52 15 -60 16 -8 2 -44 10 -80 19 -64 15 -79 17 -210
35 -59 8 -415 13 -422 6z"/>
<path d="M2044 4654 c-267 -60 -647 -250 -793 -396 -62 -63 -79 -108 -61 -164
14 -45 92 -179 126 -220 13 -15 24 -30 24 -33 0 -3 10 -17 23 -31 12 -14 44
-52 71 -85 44 -55 150 -177 186 -214 91 -93 133 -145 135 -164 4 -34 32 -84
51 -91 9 -4 25 -4 35 -1 13 4 40 -16 99 -75 l80 -80 -112 0 -113 1 -91 87
c-293 280 -458 425 -659 578 -42 32 -141 83 -170 87 -75 11 -159 -75 -257
-263 -42 -82 -98 -208 -98 -222 0 -4 -5 -19 -12 -35 -6 -15 -12 -30 -13 -33
-1 -3 -11 -38 -24 -79 -60 -194 -89 -407 -66 -481 30 -99 167 -136 615 -166
89 -6 714 -5 815 1 69 4 349 16 413 18 17 1 32 5 32 9 0 4 -22 30 -50 59 -27
29 -50 54 -50 55 0 2 10 22 21 44 12 23 22 61 23 85 0 25 4 45 8 45 3 0 41
-33 84 -74 44 -41 81 -73 83 -71 9 10 20 469 20 855 0 387 -6 569 -24 725 -3
28 -8 68 -10 90 -11 91 -37 189 -58 216 -37 48 -137 56 -283 23z m80 -1667
c28 -35 31 -46 31 -105 0 -45 -5 -74 -16 -89 -15 -22 -17 -20 -145 108 l-129
130 114 -3 114 -3 31 -38z"/>
<path d="M2766 4639 c-15 -4 -36 -15 -46 -24 -19 -17 -57 -98 -64 -137 -3 -13
-5 -23 -7 -23 -1 0 -3 -9 -4 -20 -1 -11 -7 -45 -13 -75 -22 -106 -37 -266 -41
-407 l-1 -53 -50 0 c-57 0 -56 2 -36 -85 38 -161 41 -237 40 -885 0 -349 -6
-759 -12 -910 -7 -151 -15 -403 -19 -560 -7 -338 -1 -379 65 -423 36 -24 39
-28 41 -81 1 -30 4 -63 5 -73 2 -10 7 -50 10 -88 4 -39 9 -82 11 -95 3 -14 8
-41 11 -60 3 -19 7 -43 10 -52 3 -9 7 -27 9 -40 8 -40 37 -115 54 -137 44 -58
183 -62 386 -11 44 11 91 23 104 26 94 20 381 143 486 208 92 56 158 116 180
162 23 50 14 88 -44 176 -103 157 -240 308 -633 700 l-298 297 0 146 0 146 43
-47 c83 -94 584 -591 681 -678 55 -48 145 -123 200 -167 56 -44 106 -84 113
-89 7 -6 17 -10 23 -10 5 0 10 -4 10 -8 0 -12 120 -69 161 -77 70 -13 151 53
257 211 113 168 245 448 277 590 2 10 11 45 18 77 18 73 19 174 2 207 -7 14
-21 33 -31 42 -22 19 -144 53 -225 62 -31 4 -66 8 -77 11 -18 3 -123 11 -257
20 -27 2 -77 4 -109 4 l-59 1 23 25 c13 14 27 48 34 82 l12 58 44 1 c40 1 157
9 275 19 102 9 246 40 295 63 41 20 57 50 63 113 5 48 -9 162 -25 209 -3 8
-11 33 -17 55 -43 140 -153 385 -217 482 -19 28 -34 56 -34 61 0 6 -4 12 -8
14 -5 2 -22 23 -39 48 -71 103 -152 170 -208 170 -17 0 -29 7 -35 23 -30 72
-93 97 -247 97 -99 0 -103 1 -93 19 5 11 16 25 23 33 28 27 89 144 92 173 1
16 -4 41 -10 55 -54 107 -305 254 -600 352 -81 26 -107 34 -140 41 -5 2 -16 6
-22 10 -7 5 -13 6 -13 4 0 -2 -38 3 -85 13 -91 19 -192 22 -239 9z m967 -1068
c5 -5 1 -14 -11 -22 -73 -52 -584 -551 -747 -731 l-61 -67 4 157 4 157 262
263 261 263 139 -6 c77 -2 144 -9 149 -14z"/>
<path d="M1865 2540 c-34 -17 -61 -42 -83 -75 l-34 -50 -311 -1 c-172 -1 -352
-5 -402 -8 -208 -13 -241 -16 -265 -20 -14 -3 -45 -8 -70 -11 -124 -16 -221
-53 -254 -98 -18 -24 -21 -43 -21 -120 0 -121 16 -210 69 -397 67 -232 221
-522 316 -592 53 -38 83 -39 154 -3 36 18 98 57 138 86 82 61 85 63 188 150
76 64 100 85 225 200 139 126 159 145 195 182 l37 38 7 -46 c3 -26 14 -66 25
-90 l19 -43 -50 -54 c-28 -29 -76 -80 -107 -113 -31 -33 -81 -89 -111 -124
-30 -35 -60 -69 -65 -75 -10 -11 -108 -131 -123 -151 -66 -87 -126 -201 -136
-255 -14 -88 150 -227 429 -365 286 -142 566 -211 676 -167 53 21 85 111 104
297 4 33 8 76 11 95 17 146 22 832 9 1260 -6 218 -8 239 -18 243 -3 1 -63 -52
-133 -118 -70 -66 -136 -128 -147 -137 -16 -15 -40 -18 -131 -18 l-111 0 55
55 c33 33 68 58 84 61 98 18 172 91 190 189 5 26 27 57 68 96 23 21 13 29 -38
29 -36 0 -43 3 -48 25 -4 14 -28 48 -54 74 -79 82 -189 102 -287 51z m232 -87
c59 -47 55 -59 -19 -56 -93 5 -221 11 -237 12 -10 1 -7 9 10 27 37 41 77 55
146 51 52 -2 69 -8 100 -34z m-69 -580 c-24 -35 -188 -186 -194 -180 -4 4 -9
29 -12 57 -9 100 33 139 151 140 62 0 66 -1 55 -17z"/>
</g>
</svg>
